<svg width="73" height="73" viewBox="0 0 73 73" fill="none" xmlns="http://www.w3.org/2000/svg">
<line x1="71.4178" y1="0.707107" x2="0.707123" y2="71.4178" stroke="#256EFF" stroke-width="2"/>
<circle cx="38" cy="35" r="32" fill="white"/>
<path d="M56 31.0001C56.0069 33.6398 55.3901 36.2438 54.2 38.6001C52.7889 41.4235 50.6195 43.7984 47.9349 45.4586C45.2503 47.1188 42.1565 47.9988 39 48.0001C36.3603 48.0069 33.7562 47.3902 31.4 46.2001L20 50.0001L23.8 38.6001C22.6099 36.2438 21.9931 33.6398 22 31.0001C22.0012 27.8436 22.8812 24.7498 24.5414 22.0652C26.2017 19.3806 28.5765 17.2112 31.4 15.8001C33.7562 14.6099 36.3603 13.9932 39 14.0001H40C44.1687 14.23 48.1061 15.9896 51.0583 18.9418C54.0105 21.894 55.77 25.8314 56 30.0001V31.0001Z" stroke="#181D27" stroke-width="2" stroke-linecap="round" stroke-linejoin="round"/>
</svg>
